<svg xmlns="http://www.w3.org/2000/svg" width="32" height="32" viewBox="0 0 32 32">
  <!-- Background -->
  <rect width="32" height="32" rx="4" fill="#FFC04D" />
  
  <!-- Sun -->
  <circle cx="8" cy="10" r="4" fill="#FFDD35" />
  
  <!-- Cloud -->
  <path d="M22,10 C25.3137,10 28,12.6863 28,16 C28,19.3137 25.3137,22 22,22 L12,22 C8.68629,22 6,19.3137 6,16 C6,12.6863 8.68629,10 12,10 C12.7573,10 13.4859,10.1222 14.1649,10.3493 C15.1922,8.40318 17.2207,7 19.5,7 C21.3087,7 22.9234,7.8728 24,9.20761 C23.3598,9.07274 22.6904,9 22,9" fill="#FFFFFF" />
  
  <!-- Raindrop -->
  <path d="M18,24 C18,24 19,26 19,27 C19,28.1046 18.1046,29 17,29 C15.8954,29 15,28.1046 15,27 C15,26 16,24 16,24 C16.5523,24 17.4477,24 18,24 Z" fill="#0066FF" />
  
  <!-- House outline - symbol of structure/school -->
  <path d="M16,4 L23,9 L23,18 L9,18 L9,9 L16,4 Z" fill="none" stroke="#333333" stroke-width="1" />
</svg> 